<svg xmlns="http://www.w3.org/2000/svg" width="40" height="35" viewBox="0 0 40 35">
  <g id="Group_45" data-name="Group 45" transform="translate(-320 -10)">
    <g id="Icon_ionic-ios-menu" data-name="Icon ionic-ios-menu" transform="translate(326 19.5)">
      <path id="Path_27" data-name="Path 27" d="M31.333,12.368H5.667A1.148,1.148,0,0,1,4.5,11.246h0a1.148,1.148,0,0,1,1.167-1.121H31.333A1.148,1.148,0,0,1,32.5,11.246h0A1.148,1.148,0,0,1,31.333,12.368Z" transform="translate(-4.5 -10.125)" fill="#f5f8ff"/>
      <path id="Path_28" data-name="Path 28" d="M31.333,19.118H5.667A1.148,1.148,0,0,1,4.5,18h0a1.148,1.148,0,0,1,1.167-1.121H31.333A1.148,1.148,0,0,1,32.5,18h0A1.148,1.148,0,0,1,31.333,19.118Z" transform="translate(-4.5 -9.996)" fill="#f5f8ff"/>
      <path id="Path_29" data-name="Path 29" d="M31.333,25.868H5.667A1.148,1.148,0,0,1,4.5,24.746h0a1.148,1.148,0,0,1,1.167-1.121H31.333A1.148,1.148,0,0,1,32.5,24.746h0A1.148,1.148,0,0,1,31.333,25.868Z" transform="translate(-4.5 -9.868)" fill="#f5f8ff"/>
    </g>
    <g id="Rectangle_74" data-name="Rectangle 74" transform="translate(320 10)" fill="none" stroke="#f5f8ff" stroke-width="3">
      <rect width="40" height="35" rx="10" stroke="none"/>
      <rect x="1.5" y="1.5" width="37" height="32" rx="8.5" fill="none"/>
    </g>
  </g>
</svg>
